# xmcd
#
# Track frame offsets: 
#        150
#        11815
#        23515
#        36085
#        47198
#        60135
#        72900
#        84535
#        96390
#        106638
#        118865
#        129183
#        139705
#        152968
#        163748
#        176730
#        191238
#        202280
#        216103
#        228718
#        240155
#        253043
#        263848
#        273908
#        287090
#        300438
#
# Disc length: 4179 seconds
#
# Revision: 1
# Processed by: cddbd v1.5.2PL0 Copyright (c) Steve Scherf et al.
# Submitted via: ExactAudioCopyFreeDBPlugin 1.0
#
DISCID=7110511a
DTITLE=Various Artist - The OKeh Rhythm and Blues Story, 1949-1957
DYEAR=1993
DGENRE=Rhythm and Blues
TTITLE0=Chris Powell and The Five Blue Flames - Rock the Joint
TTITLE1=Chris Powell and The Five Blue Flames - That's Right
TTITLE2=The Five Scamps - Chicken Shack Boogie
TTITLE3=Mr. Google Eyes with Billy Ford and His Musical V-8's - No Wine,
TTITLE3=No Women
TTITLE4=The Five Scamps - Red Hot
TTITLE5=Mr. Google Eyes with Billy Ford and His Musical V-8's - Rough an
TTITLE5=d Rocky Road
TTITLE6=Chris Powell and The Five Blue Flames - Hot Dog
TTITLE7=The Five Scamps - Fine Like Wine
TTITLE8=Jumpin' Joe Williams with Red Saunders and His Orchestra - Chi (
TTITLE8=Chicago)
TTITLE9=Jumpin' Joe Williams with Red Saunders and His Orchestra - Lyin'
TTITLE9=Girl Blues
TTITLE10=The Ravens - Gotta Have My Baby
TTITLE11=Chuck Willis - Let's Jump Tonight
TTITLE12=Maurice Knng and His Wolverines with Bea Baker - I Want a Laven
TTITLE12=dar Cadillac
TTITLE13=Earl Williams - If You Ever Had the Blues
TTITLE14=The Bill Davis Trio - Catch 'Em Young, Treat 'Em Rough, Tell 
TTITLE14='Em Nothin'
TTITLE15=Jumpin' Joe Williams with Red Saunders and His Orchestra - Week
TTITLE15=day Blues
TTITLE16=Irlton French with Chuck Thomas and His All Stars - My Runaroun
TTITLE16=d Baby
TTITLE17=The Five Scamps - Stuttering Blues
TTITLE18=Leroy Johnson - She Did Me Wrong
TTITLE19=The Ravens - Honey I Don't Want You
TTITLE20=Larry Darnell - Work Baby Work
TTITLE21=Pinnochio James - Camp Meeting
TTITLE22=Pearl Traylor with Chuck Thomas and His All Stars - Come On Dad
TTITLE22=dy (Let's Go Play Tonight)
TTITLE23=Maurice Knng and His Wolverines with Ruby Jackson - I Feel So G
TTITLE23=ood
TTITLE24=Pearl Traylor with Chuck Thomas and His All Stars - Three Ball 
TTITLE24=Sam (The Pawn Shop Man)
TTITLE25=Little Brother Brown - Brother's Blues
EXTD=
EXTT0=
EXTT1=
EXTT2=
EXTT3=
EXTT4=
EXTT5=
EXTT6=
EXTT7=
EXTT8=
EXTT9=
EXTT10=
EXTT11=
EXTT12=
EXTT13=
EXTT14=
EXTT15=
EXTT16=
EXTT17=
EXTT18=
EXTT19=
EXTT20=
EXTT21=
EXTT22=
EXTT23=
EXTT24=
EXTT25=
PLAYORDER=
